{"title":"Unrequited.2010.R5.H264.Feel-Free","uid":5857794,"size":1352969975,"categoryP":"video","categoryS":"movies","magnet":"?xt=urn:btih:1228d8f39f581394d6bbce70f83a532086dc0b01&amp;dn=Unrequited.2010.R5.H264.Feel-Free&amp;tr=udp%3A%2F%2Ftracker.openbittorrent.com%3A80&amp;tr=udp%3A%2F%2Fopen.demonii.com%3A1337&amp;tr=udp%3A%2F%2Ftracker.coppersurfer.tk%3A6969&amp;tr=udp%3A%2F%2Fexodus.desync.com%3A6969","seeders":0,"leechers":0,"uploader":"neon","files":-1,"time":1285867801,"description":"Genre:Drama | Thriller\nLanguage:English\n &lt;a href=&quot; http://www.imdb.http://thepiratebay.se/uploadcom/title/tt1450140/&quot; rel=&quot;nofollow&quot; target=&quot;_NEW&quot;&gt; http://www.imdb.http://thepiratebay.se/uploadcom/title/tt1450140/&lt;/a&gt;\nSource:DVD5\n\nGeneral\nComplete name :Unrequited.2010.R5.H264.Feel-Free\nFormat : MPEG-4\nFormat profile : Base Media\nCodec ID : isom\nFile size : 1.26 GiB\nDuration : 1h 42mn\nOverall bit rate : 1 759 Kbps\nVideo #1\nCodec ID : avc1\nCodec ID/Info : Advanced Video Coding\nDuration : 1h 42mn\nBit rate mode : Variable\nBit rate : 1 523 Kbps\nWidth : 688 pixels\nHeight : 288 pixels\nDisplay aspect ratio : 2.35:1\nFrame rate mode : Constant\nFrame rate : 25.000 fps\nResolution : 24 bits\nColorimetry : 4:2:0\nScan type : Progressive\nBits/(Pixel*Frame) : 0.307\nStream size : 1.09 GiB (87%)\nAudio #2\nID : 2\nFormat : AAC\nFormat/Info : Advanced Audio Codec\nFormat version : Version 4\nFormat profile : LC\nFormat settings, SBR : No\nCodec ID : 40\nDuration : 1h 42mn\nBit rate mode : Variable\nBit rate : 256 Kbps\nChannel(s) : 6 channels\nChannel positions : Front: L C R, Rear: L R, LFE\nSampling rate : 48.0 KHz\nResolution : 16 bits\nStream size : 170 MiB (13%)\n\nPlot:\nUNREQUITED is a psychological thriller and tells the story of Ben Jacobs, a troubled young man who, on his 18th birthday, has to leave the group home for &quot;troubled teens&quot; where he has been living for the past several months and move back in with his alcoholic mother. Upon his return, Ben soon discovers that his girlfriend, Jessica Morgan, has moved on with her life and is now dating an older college guy. Desperate for love and unable to cope with losing Jessica, Ben's troubled past catches up with him as he kidnaps her in an attempt to regain her affection. Spiraling out of control and on a very dangerous path, Ben must ultimately decide whether to let her go, or hold on to the one person he loves, even if it means destroying them both in the process","torrent":{"xt":"urn:btih:1228d8f39f581394d6bbce70f83a532086dc0b01","amp;dn":"Unrequited.2010.R5.H264.Feel-Free","amp;tr":["udp%3A%2F%2Ftracker.openbittorrent.com%3A80","udp%3A%2F%2Fopen.demonii.com%3A1337","udp%3A%2F%2Ftracker.coppersurfer.tk%3A6969","udp%3A%2F%2Fexodus.desync.com%3A6969"],"infoHash":"1228d8f39f581394d6bbce70f83a532086dc0b01","infoHashBuffer":{"type":"Buffer","data":[18,40,216,243,159,88,19,148,214,187,206,112,248,58,83,32,134,220,11,1]},"announce":[],"urlList":[]}}